# xmcd
#
# Track frame offsets:
#	150
#	21812
#	39480
#	54404
#	80567
#	99732
#	120633
#	138143
#	153537
#	181113
#	196853
#
# Disc length: 2786 seconds
#
# Revision: 0
# Processed by: cddbd v1.5.1PL0 Copyright (c) Steve Scherf et al.
# Submitted via: dBpowerAMP V4.0
#
DISCID=860ae00b
DTITLE=Blue Spirit Tribe - Down Underneath It All
DYEAR=1998
DGENRE=Blues
TTITLE0=Got My Brand on You
TTITLE1=Somewhat Superstitious
TTITLE2=Howling At The Moon
TTITLE3=My Darling Serpentine
TTITLE4=Swingtown
TTITLE5=Talkin The Blues
TTITLE6=Ain't Gonna Cry No More
TTITLE7=Should've Been Me
TTITLE8=Crying For Your Love
TTITLE9=I'm Going Home
TTITLE10=Always Been Crazy
EXTD=
EXTT0=
EXTT1=
EXTT2=
EXTT3=
EXTT4=
EXTT5=
EXTT6=
EXTT7=
EXTT8=
EXTT9=
EXTT10=
PLAYORDER=
